# xmcd CD database file
#
# Track frame offsets:
#	150
#	14617
#	29755
#	43582
#	56234
#	69816
#	80998
#	96098
#	109290
#	122538
#	136593
#	150987
#	165279
#	177687
#	187474
#	200280
#	211011
#	223191
#
# Disc length: 3158 seconds
#
# Revision: 2
# Processed by: cddbd v1.5PL3 Copyright (c) Steve Scherf et al.
# Submitted via: CDex 1.51
#
DISCID=050c5412
DTITLE=Various Artist - Violon Jazz #1
DYEAR=1996
DGENRE=Jazz
TTITLE0=Stephane Grappelli and His Quartet  - Dinah
TTITLE1=Stephane Grappelli and His Quartet  - Body and Soul
TTITLE2=Stephane Grappelli - Them Their Eyes
TTITLE3=Stephane Grappelli - I Wonder Where My Baby Is Tonight
TTITLE4=Hugo Rignold - Calling All Keys
TTITLE5=Joe Venuti Trio - The Wild Cat
TTITLE6=Red McKenzie and His Music Box and Joe Venuti -  My Syncopated Melody Man
TTITLE7=Joe Venuti -  Goin' Places
TTITLE8=Joe Venuti's Blue Four -  Four String Joe
TTITLE9=Joe Venuti's Blue Four -  Running Ragged
TTITLE10=Noble Sissle and His Orchestra and Juice Wilson -  Kansas City Kitty
TTITLE11=Stuff Smith and His Onyx Club Boys -  After You've Gone
TTITLE12=Stuff Smith and His Onyx Club Boys -  Onyx Club Spree
TTITLE13=Stuff Smith Trio -  Midway
TTITLE14=Stuff Smith Trio - Desert Sands
TTITLE15=Stuff Smith Trio - Skip It
TTITLE16=Duke Ellington and His Famous Orchestra and Ray Nance -  "C" Jam Blues
TTITLE17=Duke Ellington and His Famous Orchestra and Ray Nance -  Moon Mist
EXTD=YEAR: 1996
EXTT0=
EXTT1=
EXTT2=
EXTT3=
EXTT4=
EXTT5=
EXTT6=
EXTT7=
EXTT8=
EXTT9=
EXTT10=
EXTT11=
EXTT12=
EXTT13=
EXTT14=
EXTT15=
EXTT16=
EXTT17=
PLAYORDER=
